HIERARCHY
ROOT Hips
{
  OFFSET 51.5313 56.1669 7.30546
  CHANNELS 6 Xposition Yposition Zposition Zrotation Xrotation Yrotation
  JOINT spine
  {
    OFFSET 0 6.3926 0.367606
    CHANNELS 3 Zrotation Xrotation Yrotation
    JOINT spine1
    {
      OFFSET 0 9.17611 0
      CHANNELS 3 Zrotation Xrotation Yrotation
      JOINT spine2
      {
        OFFSET 0 8.79238 0
        CHANNELS 3 Zrotation Xrotation Yrotation
        JOINT Neck
        {
          OFFSET 0 22.5737 1.07624
          CHANNELS 3 Zrotation Xrotation Yrotation
          JOINT Head
          {
            OFFSET 0 6.82011 0
            CHANNELS 3 Zrotation Xrotation Yrotation
            End Site
            {
              OFFSET 0 16.5085 -5.44427
            }
          }
        }
        JOINT RightShoulder
        {
          OFFSET -3.70221 9.49509 -0.515508
          CHANNELS 3 Zrotation Xrotation Yrotation
          JOINT RightArm
          {
            OFFSET 0 12.4537 0
            CHANNELS 3 Zrotation Xrotation Yrotation
            JOINT RightArmRoll
            {
              OFFSET 0 6.28686 0
              CHANNELS 3 Zrotation Xrotation Yrotation
              JOINT RightForeArm
              {
                OFFSET 0 18.3114 0
                CHANNELS 3 Zrotation Xrotation Yrotation
                JOINT RightForeArmRoll
                {
                  OFFSET 0 7.05483 0
                  CHANNELS 3 Zrotation Xrotation Yrotation
                  JOINT RightHand
                  {
                    OFFSET 0 14.1575 0
                    CHANNELS 3 Zrotation Xrotation Yrotation
                    End Site
                    {
                      OFFSET 0 0 0
                    }
                  }
                }
              }
            }
          }
        }
        JOINT LeftShoulder
        {
          OFFSET 3.70221 9.49509 -0.515508
          CHANNELS 3 Zrotation Xrotation Yrotation
          JOINT LeftArm
          {
            OFFSET 0 12.4537 0
            CHANNELS 3 Zrotation Xrotation Yrotation
            JOINT LeftArmRoll
            {
              OFFSET 0 6.28686 0
              CHANNELS 3 Zrotation Xrotation Yrotation
              JOINT LeftForeArm
              {
                OFFSET 0 18.3114 0
                CHANNELS 3 Zrotation Xrotation Yrotation
                JOINT LeftForeArmRoll
                {
                  OFFSET 0 7.05483 0
                  CHANNELS 3 Zrotation Xrotation Yrotation
                  JOINT LeftHand
                  {
                    OFFSET 0 14.1575 0
                    CHANNELS 3 Zrotation Xrotation Yrotation
                    End Site
                    {
                      OFFSET 0 0 0
                    }
                  }
                }
              }
            }
          }
        }
      }
    }
  }
  JOINT RightUpLeg
  {
    OFFSET -5.66616 -1.03903 -0.87161
    CHANNELS 3 Zrotation Xrotation Yrotation
    JOINT RightUpLegRoll
    {
      OFFSET 0 16.6005 0
      CHANNELS 3 Zrotation Xrotation Yrotation
      JOINT RightLeg
      {
        OFFSET 0 -20.5572 0
        CHANNELS 3 Zrotation Xrotation Yrotation
        JOINT RightLegRoll
        {
          OFFSET 0 20.6244 0
          CHANNELS 3 Zrotation Xrotation Yrotation
          JOINT RightFoot
          {
            OFFSET 0 17.1664 0
            CHANNELS 3 Zrotation Xrotation Yrotation
            JOINT RightToeBase
            {
              OFFSET 0 14.3502 0
              CHANNELS 3 Zrotation Xrotation Yrotation
              End Site
              {
                OFFSET 0.00608252 6.94971 -0.801061
              }
            }
          }
        }
      }
    }
  }
  JOINT LeftUpLeg
  {
    OFFSET 5.66616 -1.03903 -0.87161
    CHANNELS 3 Zrotation Xrotation Yrotation
    JOINT LeftUpLegRoll
    {
      OFFSET 0 16.6006 0
      CHANNELS 3 Zrotation Xrotation Yrotation
      JOINT LeftLeg
      {
        OFFSET 0 20.5571 0
        CHANNELS 3 Zrotation Xrotation Yrotation
        JOINT LeftLegRoll
        {
          OFFSET 0 20.8151 0
          CHANNELS 3 Zrotation Xrotation Yrotation
          JOINT LeftFoot
          {
            OFFSET 0 16.9757 0
            CHANNELS 3 Zrotation Xrotation Yrotation
            JOINT LeftToeBase
            {
              OFFSET 0 14.3502 0
              CHANNELS 3 Zrotation Xrotation Yrotation
              End Site
              {
                OFFSET -0.0272592 6.9497 -0.801061
              }
            }
          }
        }
      }
    }
  }
}
MOTION
Frames: 12
Frame Time: 0.00208333
51.2611 58.319 8.4255 2.33081 14.6255 3.47024 -0.849493 1.76975 -0.481386 -1.69106 7.54799 -0.826869 -1.68537 9.19257 -0.799756 1.90564 -4.15075 -0.380912 0.247206 -0.823552 -0.021634 49.4988 0.995012 2.00231 114.247 26.9138 -39.4801 9.41634e-007 -3.29622e-008 -3.32877e-006 4.33259 81.39 -6.43453 9.92907e-006 8.20268e-007 -3 8.02891 -4.95144 0.697683 -45.1278 -2.51245 0.112621 -117.998 25.6026 31.7108 -7.53342e-006 -6.80355e-008 1.70079e-006 -17.4228 76.5004 18.9682 -2.2103e-008 -1.41301e-008 3 -8.02887 -4.95147 -0.697687 68.7954 83.7307 110.732 180 7.01593e-015 179.144 -173.621 74.3907 171.862 -2.94311e-006 4.56567e-006 1.43064 -17.4758 65.8453 17.8894 8.1365 25.2327 -3.48296 -85.4425 87.8238 -95.7692 4.54188e-006 -4.6773e-006 -0.992964 1.21761 -73.1984 3.41794 1.95755e-006 -6.86802e-006 -1.54225 16.2315 63.2656 -16.2422 -8.13698 25.2399 3.48657 
51.2621 58.2774 8.39889 2.34421 14.4805 3.48843 -0.854325 1.77429 -0.484795 -1.70061 7.55715 -0.832857 -1.69488 9.20172 -0.805595 1.98091 -4.06255 -0.395218 0.192296 -0.83416 -0.0268356 49.6191 0.959601 1.95766 114.248 26.9491 -39.4456 9.41634e-007 -3.29622e-008 -3.32877e-006 4.49828 81.3155 -6.56486 9.92907e-006 8.20268e-007 -3 8.02891 -4.95144 0.697683 -45.1196 -2.48749 0.0917798 -118.002 25.6012 31.6416 -7.53342e-006 -6.80356e-008 1.70079e-006 -17.385 76.4541 18.9152 -2.2103e-008 -1.413e-008 3 -8.02887 -4.95147 -0.697687 69.5091 83.7255 109.992 180 7.01592e-015 179.141 -173.495 74.417 171.757 -2.94311e-006 4.56567e-006 1.43344 -17.4784 65.8414 17.8868 8.1365 25.2327 -3.48296 -87.3409 87.8346 -93.8828 4.54188e-006 -4.6773e-006 -0.99576 1.24374 -73.2089 3.43817 1.95755e-006 -6.86802e-006 -1.54428 16.2294 63.2555 -16.2355 -8.13698 25.2399 3.48657 
51.2683 58.2875 8.33167 2.35666 14.3375 3.50592 -0.85855 1.77867 -0.488059 -1.70892 7.56597 -0.838658 -1.70314 9.21054 -0.811266 2.04691 -3.9797 -0.409126 0.143804 -0.840644 -0.0327517 49.7313 0.92348 1.9138 114.256 26.9844 -39.4101 9.41634e-007 -3.29621e-008 -3.32877e-006 4.66632 81.2372 -6.69628 9.92907e-006 8.20268e-007 -3 8.02891 -4.95144 0.697683 -45.1153 -2.46611 0.074227 -118.006 25.6023 31.577 -7.53342e-006 -6.80356e-008 1.70079e-006 -17.3495 76.4052 18.8636 -2.2103e-008 -1.413e-008 3 -8.02887 -4.95147 -0.697687 70.2421 83.72 109.238 180 7.01592e-015 179.139 -173.385 74.4408 171.666 -2.94311e-006 4.56567e-006 1.43575 -17.4803 65.8378 17.8844 8.1365 25.2327 -3.48296 -89.1906 87.8415 -92.0428 4.54188e-006 -4.6773e-006 -0.998452 1.27353 -73.2227 3.46113 1.95755e-006 -6.86802e-006 -1.54635 16.2281 63.2472 -16.23 -8.13698 25.2399 3.48657 
51.2642 58.2619 8.29523 2.3678 14.1973 3.52229 -0.862033 1.78275 -0.491089 -1.71571 7.57419 -0.844119 -1.70988 9.21875 -0.816624 2.10195 -3.90269 -0.422555 0.102899 -0.84239 -0.0395132 49.8338 0.886576 1.8709 114.273 27.0195 -39.374 9.41634e-007 -3.29622e-008 -3.32877e-006 4.83649 81.1546 -6.82849 9.92907e-006 8.20268e-007 -3 8.02891 -4.95144 0.697683 -45.1158 -2.44872 0.0603945 -118.009 25.6062 31.5181 -7.53342e-006 -6.80355e-008 1.70079e-006 -17.317 76.3538 18.814 -2.2103e-008 -1.413e-008 3 -8.02887 -4.95147 -0.697687 70.9887 83.7146 108.478 180 7.01591e-015 179.137 -173.295 74.462 171.591 -2.94311e-006 4.56567e-006 1.4375 -17.4813 65.8344 17.8822 8.1365 25.2327 -3.48296 -90.9488 87.8442 -90.2914 4.54188e-006 -4.6773e-006 -1.00101 1.30755 -73.2412 3.48725 1.95755e-006 -6.86802e-006 -1.54847 16.2279 63.2411 -16.2258 -8.13698 25.2399 3.48657 
51.2763 58.3711 8.12393 2.37723 14.0604 3.5371 -0.864641 1.7864 -0.493798 -1.72071 7.58151 -0.849089 -1.71484 9.22607 -0.821519 2.14429 -3.83202 -0.435422 0.0707488 -0.838786 -0.047251 49.925 0.848814 1.82915 114.3 27.0543 -39.3374 9.41634e-007 -3.29622e-008 -3.32877e-006 5.00854 81.0677 -6.9612 9.92907e-006 8.20268e-007 -3 8.02891 -4.95144 0.697683 -45.1217 -2.43578 0.050714 -118.011 25.613 31.4658 -7.53342e-006 -6.80355e-008 1.70079e-006 -17.2882 76.3 18.7671 -2.2103e-008 -1.413e-008 3 -8.02887 -4.95147 -0.697687 71.7434 83.7098 107.716 180 7.01591e-015 179.135 -173.227 74.4805 171.534 -2.94311e-006 4.56567e-006 1.4386 -17.4814 65.831 17.88 8.1365 25.2327 -3.48296 -92.5711 87.8423 -88.6729 4.54188e-006 -4.6773e-006 -1.00339 1.34635 -73.2655 3.51697 1.95755e-006 -6.86802e-006 -1.55065 16.2289 63.2375 -16.2231 -8.13698 25.2399 3.48657 
51.2667 58.3448 8.10798 2.38457 13.9278 3.54992 -0.866241 1.78947 -0.496098 -1.72366 7.58768 -0.853416 -1.71775 9.23223 -0.825805 2.17222 -3.76817 -0.447644 0.0485246 -0.829219 -0.0560961 50.0035 0.810118 1.78873 114.337 27.0884 -39.3004 9.41634e-007 -3.29622e-008 -3.32877e-006 5.18219 80.976 -7.0941 9.92907e-006 8.20268e-007 -3 8.02891 -4.95144 0.697683 -45.1339 -2.42771 0.0456173 -118.011 25.6232 31.4213 -7.53342e-006 -6.80355e-008 1.70079e-006 -17.2636 76.2438 18.7237 -2.21031e-008 -1.413e-008 3 -8.02887 -4.95147 -0.697687 72.5008 83.7063 106.96 180 7.01591e-015 179.133 -173.184 74.4965 171.498 -2.94311e-006 4.56567e-006 1.43897 -17.4802 65.8277 17.8779 8.1365 25.2327 -3.48296 -94.0131 87.8358 -87.2311 4.54188e-006 -4.6773e-006 -1.00557 1.39055 -73.2969 3.55075 1.95755e-006 -6.86802e-006 -1.5529 16.2311 63.2367 -16.2222 -8.13698 25.2399 3.48657 
51.2613 58.21 8.17838 2.39023 13.7988 3.56127 -0.866823 1.79224 -0.498137 -1.72451 7.59323 -0.857396 -1.71856 9.23779 -0.829778 2.18424 -3.71326 -0.459213 0.0373665 -0.813253 -0.0661966 50.0692 0.769005 1.74858 114.386 27.1234 -39.2642 9.41634e-007 -3.29622e-008 -3.32877e-006 5.35922 80.8795 -7.22877 9.92907e-006 8.20268e-007 -3 8.02891 -4.95144 0.697683 -45.1536 -2.42595 0.0463879 -118.01 25.6379 31.3846 -7.53342e-006 -6.80356e-008 1.70079e-006 -17.2436 76.1847 18.6836 -2.21031e-008 -1.413e-008 3 -8.02887 -4.95147 -0.697687 73.2857 83.7027 106.185 180 7.0159e-015 179.131 -173.171 74.5084 171.485 -2.94311e-006 4.56567e-006 1.43849 -17.4778 65.8246 17.876 8.1365 25.2327 -3.48296 -95.2791 87.8259 -85.9613 4.54188e-006 -4.6773e-006 -1.00756 1.44181 -73.3357 3.58992 1.95755e-006 -6.86802e-006 -1.55527 16.235 63.2391 -16.2232 -8.13698 25.2399 3.48657 
51.2478 58.2483 8.09156 2.39498 13.6722 3.57202 -0.866535 1.79508 -0.500126 -1.72356 7.59891 -0.861422 -1.71755 9.24346 -0.833828 2.18122 -3.66825 -0.470215 0.0367639 -0.791278 -0.0775097 50.1241 0.724473 1.70772 114.447 27.1605 -39.2294 9.41634e-007 -3.29622e-008 -3.32877e-006 5.54087 80.7787 -7.36641 9.92907e-006 8.20268e-007 -3 8.02891 -4.95144 0.697683 -45.1808 -2.43106 0.0534678 -118.007 25.6581 31.3544 -7.53342e-006 -6.80356e-008 1.70079e-006 -17.2274 76.1225 18.6461 -2.21031e-008 -1.413e-008 3 -8.02887 -4.95147 -0.697687 74.1217 83.6975 105.368 180 7.0159e-015 179.129 -173.186 74.5154 171.496 -2.94311e-006 4.56567e-006 1.43716 -17.4745 65.8221 17.8745 8.1365 25.2327 -3.48296 -96.4155 87.8142 -84.8172 4.54188e-006 -4.6773e-006 -1.00942 1.50079 -73.3804 3.63501 1.95755e-006 -6.86802e-006 -1.55782 16.2406 63.2448 -16.2262 -8.13698 25.2399 3.48657 
51.251 58.1827 8.09887 2.39891 13.5476 3.58229 -0.865479 1.79797 -0.50207 -1.721 7.60468 -0.865487 -1.71494 9.24924 -0.837944 2.165 -3.63193 -0.480717 0.0454101 -0.763916 -0.0898801 50.1693 0.677171 1.66644 114.517 27.1994 -39.1954 9.41634e-007 -3.29622e-008 -3.32877e-006 5.7261 80.6737 -7.5061 9.92907e-006 8.20268e-007 -3 8.02891 -4.95144 0.697683 -45.2144 -2.44215 0.0660269 -118.003 25.6829 31.3299 -7.53342e-006 -6.80355e-008 1.70079e-006 -17.2145 76.0572 18.6107 -2.2103e-008 -1.413e-008 3 -8.02887 -4.95147 -0.697687 75.003 83.6906 104.514 180 7.0159e-015 179.127 -173.226 74.518 171.527 -2.94311e-006 4.56567e-006 1.4351 -17.4704 65.8201 17.8735 8.1365 25.2327 -3.48296 -97.4452 87.8011 -83.7761 4.54188e-006 -4.6773e-006 -1.01118 1.56653 -73.4302 3.68528 1.95755e-006 -6.86802e-006 -1.56051 16.2477 63.2534 -16.2309 -8.13698 25.2399 3.48657 
51.2563 58.1747 8.04992 2.40211 13.4248 3.59219 -0.863756 1.80091 -0.503973 -1.71706 7.61053 -0.869583 -1.71095 9.25509 -0.842115 2.13743 -3.60312 -0.490783 0.0619984 -0.731791 -0.103152 50.2058 0.627746 1.62504 114.595 27.2395 -39.1616 9.41634e-007 -3.29622e-008 -3.32877e-006 5.91395 80.5646 -7.64698 9.92907e-006 8.20268e-007 -3 8.02891 -4.95144 0.697683 -45.2534 -2.45831 0.0832351 -117.999 25.7119 31.3103 -7.53342e-006 -6.80355e-008 1.70079e-006 -17.2044 75.989 18.577 -2.21031e-008 -1.413e-008 3 -8.02887 -4.95147 -0.697687 75.923 83.6817 103.627 180 7.01589e-015 179.125 -173.288 74.5167 171.576 -2.94311e-006 4.56567e-006 1.43241 -17.4656 65.8185 17.8727 8.1365 25.2327 -3.48296 -98.3904 87.7869 -82.8167 4.54188e-006 -4.6773e-006 -1.01283 1.63805 -73.484 3.74001 1.95755e-006 -6.86802e-006 -1.56331 16.2561 63.2644 -16.2371 -8.13698 25.2399 3.48657 
51.2637 58.1481 8.029 2.40468 13.3034 3.60184 -0.86147 1.80388 -0.505841 -1.71195 7.61644 -0.873704 -1.70578 9.26101 -0.84633 2.10036 -3.5806 -0.500478 0.0852213 -0.695527 -0.117171 50.2347 0.576848 1.5838 114.682 27.2806 -39.1275 9.41634e-007 -3.29622e-008 -3.32877e-006 6.10346 80.4518 -7.78822 9.92907e-006 8.20268e-007 -3 8.02891 -4.95144 0.697683 -45.2968 -2.47864 0.104263 -117.994 25.7441 31.2949 -7.53342e-006 -6.80356e-008 1.70079e-006 -17.1964 75.9178 18.5443 -2.2103e-008 -1.413e-008 3 -8.02887 -4.95147 -0.697687 76.8757 83.671 102.713 180 7.01589e-015 179.124 -173.369 74.5121 171.64 -2.94311e-006 4.56567e-006 1.42921 -17.4602 65.8173 17.8723 8.1365 25.2327 -3.48296 -99.2735 87.7716 -81.9169 4.54188e-006 -4.6773e-006 -1.0144 1.71436 -73.5408 3.79843 1.95755e-006 -6.86802e-006 -1.56618 16.2656 63.2774 -16.2444 -8.13698 25.2399 3.48657 
51.2448 58.1206 7.99015 2.40672 13.1831 3.61134 -0.85872 1.80688 -0.507678 -1.70588 7.62239 -0.877842 -1.69964 9.26696 -0.850579 2.05565 -3.56317 -0.509866 0.113771 -0.655748 -0.131782 50.2572 0.525125 1.54301 114.774 27.3222 -39.0924 9.41634e-007 -3.29621e-008 -3.32877e-006 6.29375 80.3353 -7.92907 9.92907e-006 8.20268e-007 -3 8.02891 -4.95144 0.697683 -45.3434 -2.50227 0.128279 -117.989 25.7789 31.2829 -7.53342e-006 -6.80355e-008 1.70079e-006 -17.1901 75.844 18.5124 -2.21031e-008 -1.413e-008 3 -8.02887 -4.95147 -0.697687 77.8547 83.6582 101.778 180 7.01589e-015 179.122 -173.465 74.5047 171.716 -2.94311e-006 4.56567e-006 1.4256 -17.4545 65.8164 17.872 8.1365 25.2327 -3.48296 -100.117 87.7555 -81.0549 4.54188e-006 -4.6773e-006 -1.0159 1.79446 -73.5996 3.85978 1.95755e-006 -6.86802e-006 -1.5691 16.2758 63.2919 -16.2526 -8.13698 25.2399 3.48657 
